<svg width="177" height="30" viewBox="0 0 177 30" fill="none" xmlns="http://www.w3.org/2000/svg">
<g clip-path="url(#clip0_44_157)">
<path fill-rule="evenodd" clip-rule="evenodd" d="M14.7432 17.0441V13.6859L16.4459 15.3652L14.7432 17.0441Z" fill="#645FCE" fill-opacity="0.02"/>
<path fill-rule="evenodd" clip-rule="evenodd" d="M20.2571 28.8235H14.8418V19.8781L20.2571 14.538V28.8235Z" fill="#EFF1F3"/>
<path fill-rule="evenodd" clip-rule="evenodd" d="M27.6284 28.8235H22.2131V13.784L27.6284 8.44409V28.8235Z" fill="#EFF1F3"/>
<path fill-rule="evenodd" clip-rule="evenodd" d="M35 28.8235H29.5847V5.33973L35 0V28.8235Z" fill="#EFF1F3"/>
<path fill-rule="evenodd" clip-rule="evenodd" d="M12.8854 21.8073V28.8235H5.77002L12.8854 21.8073Z" fill="#645FCE" fill-opacity="0.4"/>
<path fill-rule="evenodd" clip-rule="evenodd" d="M22.5311 0L17.4999 4.96125L12.4688 0H22.5311Z" fill="#645FCE" fill-opacity="0.5"/>
<path fill-rule="evenodd" clip-rule="evenodd" d="M22.5311 0L17.4999 4.96125L12.4688 0H22.5311Z" fill="#EFF1F3"/>
<path fill-rule="evenodd" clip-rule="evenodd" d="M7.37158 24.1002V7.37881L12.7869 12.7187V18.7603L7.37158 24.1002Z" fill="#EFF1F3"/>
<path fill-rule="evenodd" clip-rule="evenodd" d="M14.7432 17.0441V13.6859L16.4459 15.3652L14.7432 17.0441Z" fill="#EFF1F3"/>
<path fill-rule="evenodd" clip-rule="evenodd" d="M3.66183 28.8235H0V0L5.4153 5.33973V27.0946L3.66183 28.8235Z" fill="#EFF1F3"/>
<path fill-rule="evenodd" clip-rule="evenodd" d="M12.8854 21.8073V28.8235H5.77002L12.8854 21.8073Z" fill="#EFF1F3"/>
</g>
<path d="M45.776 24V6.96H53C53.784 6.96 54.504 7.12 55.16 7.44C55.816 7.76 56.384 8.192 56.864 8.736C57.36 9.28 57.744 9.888 58.016 10.56C58.288 11.232 58.424 11.92 58.424 12.624C58.424 13.584 58.2 14.496 57.752 15.36C57.304 16.224 56.688 16.928 55.904 17.472C55.12 18.016 54.192 18.288 53.12 18.288H49.088V24H45.776ZM49.088 15.384H52.928C53.328 15.384 53.688 15.272 54.008 15.048C54.328 14.824 54.584 14.504 54.776 14.088C54.968 13.656 55.064 13.168 55.064 12.624C55.064 12.032 54.952 11.528 54.728 11.112C54.52 10.696 54.24 10.384 53.888 10.176C53.552 9.968 53.184 9.864 52.784 9.864H49.088V15.384ZM61.1291 24V6.96H68.6651C69.4491 6.96 70.1691 7.12 70.8251 7.44C71.4971 7.76 72.0731 8.192 72.5531 8.736C73.0491 9.28 73.4251 9.888 73.6811 10.56C73.9531 11.232 74.0891 11.92 74.0891 12.624C74.0891 13.344 73.9611 14.04 73.7051 14.712C73.4651 15.368 73.1131 15.944 72.6491 16.44C72.1851 16.936 71.6411 17.32 71.0171 17.592L74.9051 24H71.2571L67.7531 18.288H64.4411V24H61.1291ZM64.4411 15.384H68.5931C69.0091 15.384 69.3771 15.264 69.6971 15.024C70.0171 14.768 70.2731 14.432 70.4651 14.016C70.6571 13.6 70.7531 13.136 70.7531 12.624C70.7531 12.08 70.6411 11.608 70.4171 11.208C70.1931 10.792 69.9051 10.464 69.5531 10.224C69.2171 9.984 68.8491 9.864 68.4491 9.864H64.4411V15.384ZM84.6683 24.12C83.4203 24.12 82.2843 23.88 81.2603 23.4C80.2523 22.92 79.3803 22.272 78.6443 21.456C77.9243 20.624 77.3643 19.696 76.9643 18.672C76.5643 17.632 76.3643 16.568 76.3643 15.48C76.3643 14.344 76.5723 13.264 76.9883 12.24C77.4203 11.2 78.0043 10.28 78.7403 9.48C79.4923 8.664 80.3723 8.024 81.3803 7.56C82.4043 7.08 83.5243 6.84 84.7403 6.84C85.9723 6.84 87.0923 7.088 88.1003 7.584C89.1243 8.08 89.9963 8.744 90.7163 9.576C91.4363 10.408 91.9963 11.336 92.3963 12.36C92.7963 13.384 92.9963 14.44 92.9963 15.528C92.9963 16.648 92.7883 17.728 92.3723 18.768C91.9563 19.792 91.3723 20.712 90.6203 21.528C89.8843 22.328 89.0043 22.96 87.9803 23.424C86.9723 23.888 85.8683 24.12 84.6683 24.12ZM79.7243 15.48C79.7243 16.216 79.8363 16.928 80.0603 17.616C80.2843 18.304 80.6043 18.92 81.0203 19.464C81.4523 19.992 81.9723 20.416 82.5803 20.736C83.2043 21.04 83.9083 21.192 84.6923 21.192C85.4923 21.192 86.2043 21.032 86.8283 20.712C87.4523 20.376 87.9723 19.936 88.3883 19.392C88.8043 18.832 89.1163 18.216 89.3243 17.544C89.5483 16.856 89.6603 16.168 89.6603 15.48C89.6603 14.744 89.5403 14.04 89.3003 13.368C89.0763 12.68 88.7483 12.072 88.3163 11.544C87.9003 11 87.3803 10.576 86.7563 10.272C86.1483 9.952 85.4603 9.792 84.6923 9.792C83.8763 9.792 83.1563 9.96 82.5323 10.296C81.9243 10.616 81.4123 11.048 80.9963 11.592C80.5803 12.136 80.2603 12.744 80.0363 13.416C79.8283 14.088 79.7243 14.776 79.7243 15.48ZM94.5339 20.52C94.7419 20.664 95.1099 20.84 95.6379 21.048C96.1659 21.24 96.7899 21.336 97.5099 21.336C98.1339 21.336 98.6459 21.232 99.0459 21.024C99.4459 20.8 99.7499 20.472 99.9579 20.04C100.182 19.608 100.326 19.048 100.39 18.36C100.47 17.672 100.51 16.848 100.51 15.888V6.96H103.822V15.624C103.822 16.904 103.75 18.072 103.606 19.128C103.462 20.184 103.182 21.096 102.766 21.864C102.35 22.632 101.718 23.224 100.87 23.64C100.038 24.056 98.9259 24.264 97.5339 24.264C96.7659 24.264 96.0779 24.176 95.4699 24C94.8619 23.824 94.3019 23.56 93.7899 23.208L94.5339 20.52ZM119.419 21.096V24H107.587V6.96H119.203V9.864H110.899V13.968H118.075V16.656H110.899V21.096H119.419ZM121.064 15.36C121.064 14.32 121.248 13.304 121.616 12.312C122 11.304 122.552 10.392 123.272 9.576C123.992 8.744 124.872 8.088 125.912 7.608C126.952 7.112 128.136 6.864 129.464 6.864C131.032 6.864 132.384 7.208 133.52 7.896C134.672 8.584 135.528 9.48 136.088 10.584L133.544 12.336C133.256 11.696 132.88 11.192 132.416 10.824C131.952 10.44 131.456 10.176 130.928 10.032C130.4 9.872 129.88 9.792 129.368 9.792C128.536 9.792 127.808 9.96 127.184 10.296C126.576 10.632 126.064 11.072 125.648 11.616C125.232 12.16 124.92 12.768 124.712 13.44C124.52 14.112 124.424 14.784 124.424 15.456C124.424 16.208 124.544 16.936 124.784 17.64C125.024 18.328 125.36 18.944 125.792 19.488C126.24 20.016 126.768 20.44 127.376 20.76C128 21.064 128.68 21.216 129.416 21.216C129.944 21.216 130.48 21.128 131.024 20.952C131.568 20.776 132.072 20.496 132.536 20.112C133 19.728 133.36 19.232 133.616 18.624L136.328 20.184C135.992 21.032 135.44 21.752 134.672 22.344C133.92 22.936 133.072 23.384 132.128 23.688C131.184 23.992 130.248 24.144 129.32 24.144C128.104 24.144 126.992 23.896 125.984 23.4C124.976 22.888 124.104 22.216 123.368 21.384C122.648 20.536 122.08 19.592 121.664 18.552C121.264 17.496 121.064 16.432 121.064 15.36ZM151.693 9.864H146.245V24H142.957V9.864H137.509V6.96H151.693V9.864ZM152.465 18.864V15.96H159.737V18.864H152.465ZM164.635 6.96L168.859 13.248L173.059 6.96H176.659L170.755 15.6L176.467 24H172.867L168.859 17.952L164.827 24H161.203L166.915 15.6L161.011 6.96H164.635Z" fill="white"/>
<defs>
<clipPath id="clip0_44_157">
<rect width="35" height="28.8235" fill="white"/>
</clipPath>
</defs>
</svg>
