<svg width="150" height="28" viewBox="0 0 150 28" fill="none" xmlns="http://www.w3.org/2000/svg">
<path d="M55.628 22V6.38H62.25C62.9687 6.38 63.6287 6.52667 64.23 6.82C64.8313 7.11333 65.352 7.50933 65.792 8.008C66.2467 8.50667 66.5987 9.064 66.848 9.68C67.0973 10.296 67.222 10.9267 67.222 11.572C67.222 12.452 67.0167 13.288 66.606 14.08C66.1953 14.872 65.6307 15.5173 64.912 16.016C64.1933 16.5147 63.3427 16.764 62.36 16.764H58.664V22H55.628ZM58.664 14.102H62.184C62.5507 14.102 62.8807 13.9993 63.174 13.794C63.4673 13.5887 63.702 13.2953 63.878 12.914C64.054 12.518 64.142 12.0707 64.142 11.572C64.142 11.0293 64.0393 10.5673 63.834 10.186C63.6433 9.80467 63.3867 9.51867 63.064 9.328C62.756 9.13733 62.4187 9.042 62.052 9.042H58.664V14.102ZM75.913 13.024C75.0184 13.024 74.219 13.2 73.515 13.552C72.811 13.8893 72.305 14.3807 71.997 15.026V22H69.049V10.472H71.755V12.936C72.1657 12.144 72.6864 11.5207 73.317 11.066C73.9477 10.6113 74.615 10.362 75.319 10.318C75.4804 10.318 75.605 10.318 75.693 10.318C75.781 10.318 75.8544 10.3253 75.913 10.34V13.024ZM82.7305 22.22C81.7918 22.22 80.9485 22.066 80.2005 21.758C79.4525 21.4353 78.8145 20.9953 78.2865 20.438C77.7731 19.8807 77.3771 19.2427 77.0985 18.524C76.8198 17.8053 76.6805 17.05 76.6805 16.258C76.6805 15.4513 76.8198 14.6887 77.0985 13.97C77.3771 13.2513 77.7731 12.6133 78.2865 12.056C78.8145 11.4987 79.4525 11.066 80.2005 10.758C80.9485 10.4353 81.7918 10.274 82.7305 10.274C83.6691 10.274 84.5051 10.4353 85.2385 10.758C85.9865 11.066 86.6245 11.4987 87.1525 12.056C87.6805 12.6133 88.0765 13.2513 88.3405 13.97C88.6191 14.6887 88.7585 15.4513 88.7585 16.258C88.7585 17.05 88.6191 17.8053 88.3405 18.524C88.0765 19.2427 87.6805 19.8807 87.1525 20.438C86.6391 20.9953 86.0085 21.4353 85.2605 21.758C84.5125 22.066 83.6691 22.22 82.7305 22.22ZM79.7165 16.258C79.7165 16.9327 79.8485 17.534 80.1125 18.062C80.3765 18.5753 80.7358 18.9787 81.1905 19.272C81.6451 19.5653 82.1585 19.712 82.7305 19.712C83.2878 19.712 83.7938 19.5653 84.2485 19.272C84.7031 18.964 85.0625 18.5533 85.3265 18.04C85.6051 17.512 85.7445 16.9107 85.7445 16.236C85.7445 15.576 85.6051 14.982 85.3265 14.454C85.0625 13.926 84.7031 13.5153 84.2485 13.222C83.7938 12.9287 83.2878 12.782 82.7305 12.782C82.1585 12.782 81.6451 12.936 81.1905 13.244C80.7358 13.5373 80.3765 13.948 80.1125 14.476C79.8485 14.9893 79.7165 15.5833 79.7165 16.258ZM89.8023 26.312C89.2596 26.312 88.7389 26.224 88.2402 26.048C87.7416 25.8867 87.2869 25.63 86.8762 25.278L88.1522 23.276C88.3136 23.452 88.5116 23.5767 88.7462 23.65C88.9809 23.7233 89.2156 23.76 89.4503 23.76C89.7143 23.76 89.9489 23.694 90.1543 23.562C90.3743 23.4447 90.5429 23.276 90.6603 23.056C90.7923 22.836 90.8582 22.5867 90.8582 22.308V10.472H93.8063V22.088C93.8063 22.9093 93.6229 23.6427 93.2563 24.288C92.9043 24.9333 92.4276 25.432 91.8263 25.784C91.2396 26.136 90.5649 26.312 89.8023 26.312ZM90.8582 8.866V5.94H93.8063V8.866H90.8582ZM101.831 22.22C100.907 22.22 100.071 22.066 99.3226 21.758C98.5746 21.4353 97.9366 21.0027 97.4086 20.46C96.8806 19.9027 96.4699 19.272 96.1766 18.568C95.8979 17.8493 95.7586 17.094 95.7586 16.302C95.7586 15.202 96.0006 14.1973 96.4846 13.288C96.9832 12.3787 97.6872 11.6527 98.5966 11.11C99.5206 10.5527 100.606 10.274 101.853 10.274C103.114 10.274 104.192 10.5527 105.087 11.11C105.981 11.6527 106.663 12.3787 107.133 13.288C107.617 14.1827 107.859 15.1507 107.859 16.192C107.859 16.368 107.851 16.5513 107.837 16.742C107.822 16.918 107.807 17.0647 107.793 17.182H98.8826C98.9412 17.7687 99.1099 18.282 99.3886 18.722C99.6819 19.162 100.049 19.4993 100.489 19.734C100.943 19.954 101.427 20.064 101.941 20.064C102.527 20.064 103.077 19.9247 103.591 19.646C104.119 19.3527 104.478 18.9713 104.669 18.502L107.199 19.206C106.92 19.7927 106.517 20.3133 105.989 20.768C105.475 21.2227 104.867 21.582 104.163 21.846C103.459 22.0953 102.681 22.22 101.831 22.22ZM98.8166 15.312H104.845C104.786 14.7253 104.617 14.2193 104.339 13.794C104.075 13.354 103.723 13.0167 103.283 12.782C102.843 12.5327 102.351 12.408 101.809 12.408C101.281 12.408 100.797 12.5327 100.357 12.782C99.9312 13.0167 99.5792 13.354 99.3006 13.794C99.0366 14.2193 98.8752 14.7253 98.8166 15.312ZM115.023 22.22C114.084 22.22 113.241 22.066 112.493 21.758C111.745 21.4353 111.107 20.9953 110.579 20.438C110.051 19.866 109.64 19.2207 109.347 18.502C109.068 17.7833 108.929 17.028 108.929 16.236C108.929 15.1507 109.171 14.1607 109.655 13.266C110.153 12.3567 110.857 11.6307 111.767 11.088C112.676 10.5453 113.754 10.274 115.001 10.274C116.247 10.274 117.318 10.5453 118.213 11.088C119.107 11.6307 119.775 12.342 120.215 13.222L117.333 14.102C117.083 13.6767 116.753 13.354 116.343 13.134C115.932 12.8993 115.477 12.782 114.979 12.782C114.421 12.782 113.908 12.9287 113.439 13.222C112.984 13.5007 112.625 13.904 112.361 14.432C112.097 14.9453 111.965 15.5467 111.965 16.236C111.965 16.9107 112.097 17.512 112.361 18.04C112.639 18.5533 113.006 18.964 113.461 19.272C113.915 19.5653 114.421 19.712 114.979 19.712C115.331 19.712 115.661 19.6533 115.969 19.536C116.291 19.4187 116.577 19.2573 116.827 19.052C117.076 18.8467 117.259 18.612 117.377 18.348L120.259 19.228C119.995 19.8 119.606 20.3133 119.093 20.768C118.594 21.2227 118 21.582 117.311 21.846C116.636 22.0953 115.873 22.22 115.023 22.22ZM128.98 21.406C128.731 21.5087 128.43 21.626 128.078 21.758C127.726 21.89 127.345 21.9927 126.934 22.066C126.538 22.154 126.135 22.198 125.724 22.198C125.182 22.198 124.683 22.1027 124.228 21.912C123.774 21.7213 123.407 21.4207 123.128 21.01C122.864 20.5847 122.732 20.0347 122.732 19.36V12.738H121.214V10.472H122.732V6.732H125.68V10.472H128.1V12.738H125.68V18.37C125.695 18.766 125.805 19.052 126.01 19.228C126.216 19.404 126.472 19.492 126.78 19.492C127.088 19.492 127.389 19.4407 127.682 19.338C127.976 19.2353 128.21 19.1473 128.386 19.074L128.98 21.406ZM130.45 17.292V14.63H137.116V17.292H130.45ZM141.259 10.472L143.679 14.08L143.855 14.476L144.075 14.08L146.473 10.472H149.575L145.571 16.214L149.641 22H146.539L144.053 18.414L143.855 18.04L143.679 18.414L141.215 22H138.113L142.183 16.28L138.179 10.472H141.259Z" fill="#223843"/>
<path fill-rule="evenodd" clip-rule="evenodd" d="M14.322 16.5571V13.2948L15.9761 14.9261L14.322 16.5571Z" fill="#645FCE" fill-opacity="0.02"/>
<path fill-rule="evenodd" clip-rule="evenodd" d="M19.6783 28H14.4177V19.3102L19.6783 14.1227V28Z" fill="#A29FE2"/>
<path fill-rule="evenodd" clip-rule="evenodd" d="M26.8389 28.0001H21.5784V13.3902L26.8389 8.20288V28.0001Z" fill="#837FD8"/>
<path fill-rule="evenodd" clip-rule="evenodd" d="M34.0001 28H28.7395V5.18717L34.0001 0V28Z" fill="#645FCE"/>
<path fill-rule="evenodd" clip-rule="evenodd" d="M12.5173 21.1842V28H5.60522L12.5173 21.1842Z" fill="#645FCE" fill-opacity="0.4"/>
<path fill-rule="evenodd" clip-rule="evenodd" d="M21.8874 0L17 4.8195L12.1125 0H21.8874Z" fill="#645FCE" fill-opacity="0.5"/>
<path fill-rule="evenodd" clip-rule="evenodd" d="M21.8874 0L17 4.8195L12.1125 0H21.8874Z" fill="#7872AA"/>
<path fill-rule="evenodd" clip-rule="evenodd" d="M7.16113 23.4116V7.16797L12.4217 12.3553V18.2243L7.16113 23.4116Z" fill="#665D8C"/>
<path fill-rule="evenodd" clip-rule="evenodd" d="M14.322 16.5571V13.2948L15.9761 14.9261L14.322 16.5571Z" fill="#8B85A8"/>
<path fill-rule="evenodd" clip-rule="evenodd" d="M3.55721 28H0V0L5.26058 5.18717V26.3205L3.55721 28Z" fill="#40356F"/>
<path fill-rule="evenodd" clip-rule="evenodd" d="M12.5173 21.1842V28H5.60522L12.5173 21.1842Z" fill="#746CA1"/>
</svg>
